# xmcd
#
# Track frame offsets: 
#        150
#        20835
#        45890
#        67133
#        93488
#        115425
#        134338
#        162083
#        187445
#        213853
#        240563
#
# Disc length: 3396 seconds
#
# Revision: 1
# Processed by: cddbd v1.5.2PL0 Copyright (c) Steve Scherf et al.
# Submitted via: ExactAudioCopy v0.95b3
#
DISCID=9f0d420b
DTITLE=Shigeo Fukuda Trio - Come Rain Or Come Shine
DYEAR=2007
DGENRE=Jazz
TTITLE0=It's Only A Paper Moon
TTITLE1=Lullaby
TTITLE2=All The Things You Are
TTITLE3=Poinciana
TTITLE4=What A Difference A Day Made
TTITLE5=Come Rain Or Come Shine
TTITLE6=Here's That Rainy Day
TTITLE7=When Lights Are Low
TTITLE8=Fotografia
TTITLE9=Childhood's Dream
TTITLE10=My Ship
EXTD=YEAR: 2006
EXTT0=
EXTT1=
EXTT2=
EXTT3=
EXTT4=
EXTT5=
EXTT6=
EXTT7=
EXTT8=
EXTT9=
EXTT10=
PLAYORDER=
